<?xml version="1.0" encoding="UTF-8"?>
<svg id="COMTY" xmlns="http://www.w3.org/2000/svg" viewBox="0 0 66.35 72">
  <defs>
    <style>
      .cls-1 {
        fill: #ffa0a2;
      }

      .cls-2 {
        fill: #ffbfc1;
      }

      .cls-3 {
        fill: #ff6064;
      }

      .cls-4 {
        fill: #ff8083;
      }

      .cls-5 {
        opacity: .5;
      }
    </style>
  </defs>
  <g id="ISO-COMPOSED">
    <path id="C-BODY" class="cls-3" d="m64.42,19.59s-7.75,4.48-11.22,6.48c-.89.51-2.02.25-2.62-.59-4.54-6.28-13.01-9.53-21.82-6.06-4.07,1.6-7.38,4.73-9.1,8.75-5.63,13.16,3.87,25.83,16.34,25.83,4.31,0,8.26-1.51,11.36-4.04.81-.65,1.97-.62,2.71.11l9.92,9.93c.82.81.78,2.15-.08,2.92-9.71,8.63-24.13,12.09-38.92,6.04C9.37,64.21,0,49.7,0,37.14V4C0,1.79,1.79,0,4,0h32C48.56,0,59.6,6.44,66.04,16.19c.63.97.33,2.27-1.62,3.4Z"/>
    <g id="C-MASK" class="cls-5">
      <path class="cls-2" d="m17.99,0v18H0V4C0,1.79,1.79,0,4,0h13.99Z"/>
      <rect class="cls-1" x="17.99" y="0" width="18" height="18"/>
      <path class="cls-4" d="m53.99,4.84C48.76,1.81,42.7.05,36.23,0h-.24v18h16c1.1,0,2-.9,2-2V4.84Z"/>
      <rect class="cls-1" x="0" y="17.96" width="18" height="18"/>
      <path class="cls-4" d="m17.99,35.96H0v1.18C0,42.71,1.84,48.65,4.9,53.96h11.09c1.1,0,2-.9,2-2v-16Z"/>
      <path class="cls-4" d="m19.66,28.16c1.72-4.02,5.03-7.15,9.1-8.75,2.47-.97,4.9-1.4,7.24-1.4v-.05h-18v18h.02c0-2.51.52-5.14,1.65-7.8Z"/>
    </g>
  </g>
</svg>