<svg id="Capa_1" data-name="Capa 1" xmlns="http://www.w3.org/2000/svg" viewBox="0 0 872.96 353.22"><defs><style>.cls-1{fill:#2b2c2e;}.cls-2{fill:#f3b425;}</style></defs><title>BalckComtyNG-Logo</title><path class="cls-1" d="M508.52,166.9c16.74-19.81,45-20.54,63.07-10.8,21,11.33,32.12,29,31.92,54.52q-.35,43.2.06,86.4c0,4.75-1.23,5.91-5.52,5.74-8.89-.37-17.82-.37-26.71,0-4.45.18-5.89-.87-5.84-6,.28-28.61.15-57.23.13-85.85,0-18.45-12.92-27.37-28.67-19.7-6.86,3.35-9.09,9.71-9.09,17.31q0,43.2,0,86.41c0,9,1,7.62-7.16,7.7-8.55.09-17.11-.22-25.66.12-4.26.17-5.6-1-5.57-5.77.22-28.61.12-57.23.09-85.85,0-3.32.19-6.68-.88-9.92-3.89-11.84-17.82-16.77-27.72-9.72-6,4.28-9.29,9.92-9.23,18,.2,29-.06,58,.2,87,.05,5.3-1.5,6.47-6.13,6.29-9.24-.37-18.5-.21-27.75-.05-2.95.05-4.31-.44-4.3-4.16q.18-70.8.11-141.59c0-1.35-.68-3.56,1.14-3.78,3.19-.4,6.65-1.42,9.58.87a31.77,31.77,0,0,1,4,4.41c5,5.79,5,5.82,11.09,1.5a51,51,0,0,1,22.25-9.07C479.9,148.17,495.75,152.45,508.52,166.9Z" transform="translate(-12.17 -6.57)"/><path class="cls-1" d="M843.78,298.68c-3.36-.73-5.31.77-7.29,1.73-17.69,8.66-34.83,5.65-51.27-3.46-22.64-12.54-33.4-33.26-33.78-60-.37-26.38,0-52.77-.19-79.16,0-3.9,1.08-5.11,4.73-5,9.25.24,18.51.31,27.76,0,4.31-.16,5.62,1.13,5.58,5.84-.23,23.23-.13,46.45-.07,69.68,0,4.45.19,8.92.62,13.34,1.19,12.07,7.17,20.39,18.08,24s20.57,1.67,28.89-7.2c6.92-7.36,10-15.85,9.86-26.36-.37-24.53,0-49.06-.2-73.59,0-4.17.73-5.89,5.1-5.72,9.77.36,19.55.22,29.33,0,3.17-.06,4.21,1,4.2,4.44-.1,42.36.13,84.73-.18,127.1-.14,20.42-8.19,38-21.52,52-13.87,14.59-31,23.07-51,23.42-6.63.12-13.27-.12-19.9-.05-2.42,0-3.42-.82-3.4-3.53.1-10.41.15-20.81,0-31.22-.06-3.73,1.94-3.56,4.37-3.62,8-.2,16,.92,24-.77,8.3-1.75,14.8-6.31,20-13.21C839.5,304.66,841.44,301.9,843.78,298.68Z" transform="translate(-12.17 -6.57)"/><path class="cls-1" d="M703.29,153.08c8,0,16.06.12,24.08-.06,3-.06,4.38.63,4.3,4.27-.22,9.83-.2,19.68,0,29.52.07,3.45-1,4.4-4.17,4.37-15.88-.15-31.76.17-47.63-.22-4.8-.12-5.88,1.6-5.79,6.19.24,12.25.85,24.55.08,36.74-1.1,17.26,15.32,31,28.25,30.7,8.38-.17,16.76.13,25.13-.08,3.23-.07,4.19,1.07,4.13,4.45-.18,9.84,0,19.68-.07,29.52,0,2,.44,4.3-2.66,4.17-14.25-.61-28.66,1.8-42.71-2.26-23.79-6.88-39.76-22.35-47.17-47.86a81.94,81.94,0,0,1-2.92-23.32c0-11.33-.09-22.66.06-34,0-3.06-.73-4.16-3.77-4.23-4.42-.09-10.34,2.31-12.85-1.21-2.13-3-.62-8.93-.65-13.57,0-5.57.39-11.18-.12-16.7-.53-5.67,1.57-7.22,6.42-6.49,2,.31,4.2-.16,6.27.1,3.65.45,4.77-1,4.73-4.93-.19-16.53,0-33.06-.17-49.58-.06-4.22.79-5.85,5.12-5.68,9.41.37,18.85.33,28.26,0,4-.13,5,1.32,5,5.38-.19,16.52.05,33-.17,49.55-.06,4.19,1.07,5.45,5,5.3C687.23,152.86,695.27,153.08,703.29,153.08Z" transform="translate(-12.17 -6.57)"/><path class="cls-1" d="M317,305.48c-105.54-6.08-96.87-163.56,7.16-158.23C421.18,156.65,412.92,304.26,317,305.48Zm.91-119.79c-51-.11-49.27,80.52-.75,81.23C368.21,266.19,366.62,186.35,317.88,185.69Z" transform="translate(-12.17 -6.57)"/><path class="cls-1" d="M65.81,201.94a99.4,99.4,0,0,1,22.54-63.18c26.28-32.3,60.3-44.42,100-37.77,16.86,2.82,31.7,10.71,45.55,21,2.2,1.64,1.88,3.34.48,5.1-7,8.81-11.71,19.19-17.44,28.88-1.38,2.34-2.41,2.63-4.29,1-.79-.69-1.8-1.13-2.54-1.87-18.9-19-54.52-20.41-76.11-5-9.33,6.65-15.9,15.06-21.52,25.1-9.14,16.34-9.58,33.62-2.89,50.08,9.07,22.35,25.54,36.66,48.74,40.48,19.38,3.18,37.1-1.07,52.17-15.1,3-2.74,4.91-3.46,7.42,1,5.14,9.19,9.57,18.89,16.3,27,1.57,1.89,1.88,3.67-.52,5.49-20.36,15.43-42.86,23.65-68,22.76A99.34,99.34,0,0,1,114.68,291c-20.59-13.21-34.88-31.53-43.24-55.72C67.74,224.64,66.25,214,65.81,201.94Z" transform="translate(-12.17 -6.57)"/><path class="cls-2" d="M23.86,93.48c-4.66,0-8-2.53-10.15-6.63a11.41,11.41,0,0,1,.44-12.15c9.5-13.91,21.42-25.17,34.6-35A189.69,189.69,0,0,1,71.38,24.93,181.12,181.12,0,0,1,120.11,7c5.25-1.13,10.27-.22,13.68,4.59,5.08,7.19,1.69,17.32-6.7,19.22-14,3.18-27.77,7.38-40.62,14.1A156.19,156.19,0,0,0,51.34,69.77,145.41,145.41,0,0,0,35.11,87.71C31.69,92.24,29.31,93.46,23.86,93.48Z" transform="translate(-12.17 -6.57)"/><path class="cls-2" d="M84.13,72.24c9.54-6.15,15.92-9.6,19.52-11.48A94.55,94.55,0,0,1,121,54c5.56-1.59,7.9-1.7,10.32-1.06.87.23,8.35,2.33,10.14,9.49a13.72,13.72,0,0,1-1.1,9.06c-1.71,3.21-4.94,5.5-9.5,6.47C111.7,82,95.45,92,81,105.43a93.29,93.29,0,0,0-9.2,10.65c-3.59,4.54-8.14,6.54-13.46,5.2a11.63,11.63,0,0,1-5.39-2.93,12.59,12.59,0,0,1-3.75-7.53c-.35-3.17.69-5.54,2-8.41a31.19,31.19,0,0,1,6.9-9.65A202.75,202.75,0,0,1,84.13,72.24Z" transform="translate(-12.17 -6.57)"/></svg>