<svg id="Capa_2" data-name="Capa 2" xmlns="http://www.w3.org/2000/svg" xmlns:xlink="http://www.w3.org/1999/xlink" viewBox="0 0 1391.17 234.17">
  <defs>
    <style>
      .cls-1 {
        fill: #fff;
      }

      .cls-2 {
        fill: #00fea1;
      }

      .cls-3 {
        fill: #00a079;
      }
    </style>
    <symbol id="TM" data-name="TM" viewBox="0 0 46.03 24.05">
      <path class="cls-1" d="M19.68.52a1.31,1.31,0,0,1,.42,1,1.31,1.31,0,0,1-.42,1A1.7,1.7,0,0,1,18.53,3H11.7l0,19.43a1.54,1.54,0,0,1-.48,1.18A1.71,1.71,0,0,1,10,24a1.72,1.72,0,0,1-1.18-.45,1.51,1.51,0,0,1-.5-1.17l0-19.44H1.57C.52,2.93,0,2.46,0,1.53S.52.13,1.57.13l17,0A1.68,1.68,0,0,1,19.68.52Zm25.93,0A1.65,1.65,0,0,1,46,1.66l0,20.77a1.73,1.73,0,0,1-.39,1.21,1.44,1.44,0,0,1-1.07.41,1.37,1.37,0,0,1-1.06-.42,1.7,1.7,0,0,1-.39-1.2l0-16L36.32,19.34a1.64,1.64,0,0,1-1.57,1.11,1.61,1.61,0,0,1-1.51-1.12L26.48,6.67l0,15.73A1.61,1.61,0,0,1,26,23.61a1.63,1.63,0,0,1-1.12.41,1.39,1.39,0,0,1-1.07-.42,1.7,1.7,0,0,1-.39-1.2l0-20.78A1.58,1.58,0,0,1,23.91.45,1.59,1.59,0,0,1,25.09,0c.6,0,1.1.39,1.51,1.18l8.21,15.69L43,1.2A1.81,1.81,0,0,1,44.52,0,1.42,1.42,0,0,1,45.61.48Z"/>
    </symbol>
    <symbol id="Nuevo_símbolo" data-name="Nuevo símbolo" viewBox="0 0 822.09 126.19">
      <g>
        <path class="cls-1" d="M1.67,123.38A5.16,5.16,0,0,1,0,119.5V6.34A5.16,5.16,0,0,1,1.67,2.46,5.81,5.81,0,0,1,5.81.88H40q29.4,0,45.5,16t16.1,45.93q0,29.92-16.1,46T40,125H5.81A5.81,5.81,0,0,1,1.67,123.38Zm37.75-7.92q50.7,0,50.69-52.63,0-52.44-50.69-52.45H10.91V115.46Z"/>
        <path class="cls-1" d="M183.65,45.58q7.66,8.1,7.66,24.47v50.16a5.55,5.55,0,0,1-1.41,4,5.77,5.77,0,0,1-7.74,0,5.55,5.55,0,0,1-1.41-4V109.65A27.59,27.59,0,0,1,170,121.88a30.31,30.31,0,0,1-16.19,4.31,34.05,34.05,0,0,1-15.13-3.34,26.68,26.68,0,0,1-10.83-9.33,23.42,23.42,0,0,1-4-13.2q0-9.51,4.93-14.78T145.2,78q11.43-2.3,31.85-2.29h3.7V69.17q0-11.62-4.75-17t-15-5.36a48.54,48.54,0,0,0-24.82,6.86l-2.73,1.85A7,7,0,0,1,129.71,57a3.67,3.67,0,0,1-2.9-1.32,4.75,4.75,0,0,1-1.15-3.25q0-3.87,6.16-7.57a55.22,55.22,0,0,1,13.73-5.46,60.17,60.17,0,0,1,15-1.93Q176,37.49,183.65,45.58Zm-10.2,63.54q7.29-7.74,7.3-19.71V83.6h-3.34q-16.9,0-25.88,1.41t-12.67,4.84q-3.69,3.44-3.69,9.94A15.4,15.4,0,0,0,140.8,112a20.56,20.56,0,0,0,13.9,4.84Q166.15,116.86,173.45,109.12Z"/>
        <path class="cls-1" d="M232.4,124.17a46.44,46.44,0,0,1-12.58-5.55,21.46,21.46,0,0,1-4.66-4,5.92,5.92,0,0,1-1.32-3.78,4.2,4.2,0,0,1,1.14-3,3.59,3.59,0,0,1,2.73-1.23q1.57,0,5.45,2.64a57.52,57.52,0,0,0,10.48,5.45,37,37,0,0,0,13.46,2.11q10.38,0,16.19-3.78a12.16,12.16,0,0,0,5.81-10.82,11,11,0,0,0-2.11-7,16.9,16.9,0,0,0-7-4.75,85.62,85.62,0,0,0-14.08-4q-15.68-3.51-22.27-9.06T217,62.66a22.14,22.14,0,0,1,8.8-18.22q8.8-6.94,22.88-6.95a48.33,48.33,0,0,1,13.12,1.76,33.53,33.53,0,0,1,10.82,5.1q6.17,4.23,6.16,8.27a4.55,4.55,0,0,1-1.14,3.08A3.52,3.52,0,0,1,274.91,57c-1.18,0-3-.93-5.46-2.81A53.7,53.7,0,0,0,260,48.84a30,30,0,0,0-11.88-2q-9.16,0-14.61,4.13a13.3,13.3,0,0,0-5.46,11.18,11.41,11.41,0,0,0,1.85,6.69,15,15,0,0,0,6.34,4.66,72.14,72.14,0,0,0,12.93,4q12.15,2.82,18.66,6T277.2,91Q280,95.4,280,102.26,280,113,271,119.59t-24,6.6A53,53,0,0,1,232.4,124.17Z"/>
        <path class="cls-1" d="M374.17,70.58v49.8a5.51,5.51,0,0,1-1.41,4,5.05,5.05,0,0,1-3.87,1.5,5.14,5.14,0,0,1-5.45-5.46V71.28q0-12.68-5.11-18.48T342.14,47q-12.67,0-20.33,7.75T314.16,75.5v44.88a5.51,5.51,0,0,1-1.41,4,5.05,5.05,0,0,1-3.87,1.5,5.15,5.15,0,0,1-5.46-5.46V5.46a5.32,5.32,0,0,1,1.5-4,5.32,5.32,0,0,1,4-1.5,5.05,5.05,0,0,1,3.87,1.5,5.51,5.51,0,0,1,1.41,4v48.4a28.2,28.2,0,0,1,11.7-12.15,35.69,35.69,0,0,1,17.51-4.22Q374.17,37.49,374.17,70.58Z"/>
        <path class="cls-1" d="M462.17,42.94a36.27,36.27,0,0,1,13.38,15.4q4.74,9.94,4.75,23.15,0,13.38-4.75,23.49a36.62,36.62,0,0,1-13.38,15.67,36,36,0,0,1-19.89,5.54,34.47,34.47,0,0,1-17.95-4.49,28.13,28.13,0,0,1-11.44-13.11v11.62a5.55,5.55,0,0,1-1.41,4,5.08,5.08,0,0,1-3.87,1.49,5.14,5.14,0,0,1-5.46-5.45V5.46a5.32,5.32,0,0,1,1.5-4,5.35,5.35,0,0,1,4-1.5,5.05,5.05,0,0,1,3.87,1.5,5.51,5.51,0,0,1,1.41,4V55.09A28.13,28.13,0,0,1,424.33,42a34.47,34.47,0,0,1,17.95-4.49A36.47,36.47,0,0,1,462.17,42.94Zm-.44,64.42q7.49-9.33,7.48-25.87t-7.48-25.61q-7.49-9.06-21-9.06-13.38,0-20.59,9.15t-7.22,25.87q0,16.72,7.3,25.78t20.68,9.07Q454.25,116.69,461.73,107.36Z"/>
        <path class="cls-1" d="M516.29,120.74a36.65,36.65,0,0,1-13.82-15.49q-4.92-10-4.92-23.41t4.92-23.41a36.65,36.65,0,0,1,13.82-15.49,41.79,41.79,0,0,1,41.27,0,35.88,35.88,0,0,1,13.82,15.49q4.83,10,4.84,23.41t-4.84,23.41a35.88,35.88,0,0,1-13.82,15.49,41.79,41.79,0,0,1-41.27,0Zm41.45-13q7.39-9,7.39-25.87,0-16.55-7.48-25.78T537,46.82q-13.38,0-20.77,9.24t-7.39,25.78q0,16.89,7.21,25.87t20.77,9Q550.35,116.69,557.74,107.71Z"/>
        <path class="cls-1" d="M655.86,45.58q7.65,8.1,7.65,24.47v50.16a5.55,5.55,0,0,1-1.41,4,5.77,5.77,0,0,1-7.74,0,5.55,5.55,0,0,1-1.41-4V109.65a27.62,27.62,0,0,1-10.73,12.23,30.37,30.37,0,0,1-16.2,4.31,34.08,34.08,0,0,1-15.13-3.34,26.75,26.75,0,0,1-10.83-9.33,23.5,23.5,0,0,1-4-13.2q0-9.51,4.93-14.78T617.4,78q11.45-2.3,31.86-2.29H653V69.17q0-11.62-4.75-17t-15-5.36a48.51,48.51,0,0,0-24.81,6.86c-.36.24-1.27.85-2.73,1.85A7.1,7.1,0,0,1,601.91,57,3.67,3.67,0,0,1,599,55.7a4.74,4.74,0,0,1-1.14-3.25q0-3.87,6.15-7.57a55.38,55.38,0,0,1,13.73-5.46,60.28,60.28,0,0,1,15-1.93Q648.2,37.49,655.86,45.58Zm-10.21,63.54q7.3-7.74,7.3-19.71V83.6h-3.34q-16.89,0-25.87,1.41t-12.68,4.84q-3.69,3.44-3.69,9.94A15.4,15.4,0,0,0,613,112a20.59,20.59,0,0,0,13.91,4.84Q638.34,116.86,645.65,109.12Z"/>
        <path class="cls-1" d="M736,38.72a4.11,4.11,0,0,1,1.41,3.52c0,2.93-1.76,4.58-5.28,4.93l-5.28.53q-12.5,1.23-18.57,9a28.54,28.54,0,0,0-6.07,18.13v45.58a5.48,5.48,0,0,1-1.41,4.05,5.23,5.23,0,0,1-3.87,1.41,5.55,5.55,0,0,1-4-1.41,5.29,5.29,0,0,1-1.5-4.05V43.3a5.29,5.29,0,0,1,1.5-4,5.55,5.55,0,0,1,4-1.41,5,5,0,0,1,3.7,1.41,5.26,5.26,0,0,1,1.4,3.87V54.56Q709.27,39.42,728.81,38l2.46-.18C733.5,37.72,735.08,38,736,38.72Z"/>
        <path class="cls-1" d="M820.59,1.5a5.32,5.32,0,0,1,1.5,4V120.21a5.14,5.14,0,0,1-5.46,5.45,5.08,5.08,0,0,1-3.87-1.49,5.55,5.55,0,0,1-1.41-4V108.59a28.19,28.19,0,0,1-11.44,13.11A34.49,34.49,0,0,1,782,126.19a36,36,0,0,1-19.89-5.54A36.62,36.62,0,0,1,748.69,105q-4.74-10.11-4.75-23.49,0-13.2,4.75-23.15A35.39,35.39,0,0,1,782,37.49,34.49,34.49,0,0,1,799.91,42a28.19,28.19,0,0,1,11.44,13.11V5.46a5.51,5.51,0,0,1,1.41-4A5.05,5.05,0,0,1,816.63,0,5.35,5.35,0,0,1,820.59,1.5ZM804.05,107.62q7.29-9.06,7.3-25.78T804.13,56q-7.21-9.15-20.59-9.15-13.54,0-20.94,9.06t-7.39,25.61q0,16.73,7.39,26t20.77,9.24Q796.73,116.69,804.05,107.62Z"/>
      </g>
    </symbol>
  </defs>
  <title>rDashboard-White-TM-T3</title>
  <use id="TM-3" data-name="TM" width="46.03" height="24.05" transform="translate(1345.14 73.61)" xlink:href="#TM"/>
  <use id="Dashboard_TEXT" data-name="Dashboard TEXT" width="822.09" height="126.19" transform="translate(514.02 89.17)" xlink:href="#Nuevo_símbolo"/>
  <path id="RLayer" class="cls-2" d="M664.53,480.3c-1.79-11.1-9.16-47.71-42.06-77.06a144,144,0,0,0-39.93-25.5C567,371.55,545.3,369,540,369c-88.56,0-173.41-.11-262-.17L381.87,480h-154l267,123H585c7.28-.46,27.63,0,45-18,9.86-10.21,12.63-15.37,19.17-25.65h0A119.92,119.92,0,0,0,664.53,480.3Z" transform="translate(-222 -368.83)"/>
  <polygon id="T1" class="cls-3" points="160 111.17 273 234.17 0 111.17 160 111.17"/>
  <path class="cls-2" d="M227.92,480" transform="translate(-222 -368.83)"/>
</svg>
