<svg xmlns="http://www.w3.org/2000/svg" xmlns:xlink="http://www.w3.org/1999/xlink" viewBox="0 0 74.31418 77.6027">
  <defs>
    <clipPath id="a" transform="translate(-62.852 -42.79726)">
      <path d="M67.69373,97.48126A37.88884,37.88884,0,0,1,64.32235,81.962V47.74457a4,4,0,0,1,4-4h34.81344A40.202,40.202,0,0,1,115.504,45.80379V60.70226H99.244v5.1882a17.26642,17.26642,0,0,0-12.40516,13.0078H80.273v18.583Z" style="fill: none"/>
    </clipPath>
  </defs>
  <g>
    <path d="M120.3477,73.49586l16.068-8.392a1.421,1.421,0,0,0,.581-1.925l-.004-.009a39.55488,39.55488,0,0,0-53.655-14.202q-.636.369-1.259.763a37.94591,37.94591,0,0,0-16.316,42.476,38.68947,38.68947,0,0,0,8.549,15.373,39.509,39.509,0,0,0,44.645,9.645,38.33887,38.33887,0,0,0,9.525-5.922,1.41255,1.41255,0,0,0,.121-1.993l-.019-.02-11.979-12.759a1.4336,1.4336,0,0,0-1.902-.165,17.03956,17.03956,0,0,1-3.628,2.287,17.77554,17.77554,0,0,1-9.363,1.361c-8.267-1.065-12.512-7.864-12.815-8.361a17.70265,17.70265,0,0,1-2.409-10.684,17.95939,17.95939,0,0,1,6.646-12.087,17.73033,17.73033,0,0,1,24.61,3.044c.283.361.549.734.802,1.117a1.413,1.413,0,0,0,1.802.453" transform="translate(-62.852 -42.79726)" style="fill: #ff6064"/>
    <g style="clip-path: url(#a)">
      <rect width="17.421" height="17.905" style="fill: #ff7c8c"/>
      <rect x="17.421" width="18.971" height="17.905" style="fill: #ff4971"/>
      <rect x="36.392" width="16.26" height="17.905" style="fill: #ff4457"/>
      <rect y="17.905" width="17.421" height="18.196" style="fill: #ff4971"/>
      <rect y="36.101" width="17.421" height="18.583" style="fill: #ff4457"/>
      <rect x="17.421" y="17.905" width="18.971" height="18.196" style="fill: #ff4457"/>
    </g>
  </g>
</svg>
