<svg id="a5b341d4-efcc-46ea-a271-f2bea59c6abd" data-name="Capa 1" xmlns="http://www.w3.org/2000/svg" xmlns:xlink="http://www.w3.org/1999/xlink" viewBox="0 0 73.95833 75.98684">
  <defs>
    <clipPath id="ff5fefc3-adb2-4abb-b227-248fe5798176" transform="translate(-59.54167 -41.51316)">
      <path d="M65.66466,94.80263h11.627V77.03947h7.12138A17.46634,17.46634,0,0,1,89.91264,67.661a16.65479,16.65479,0,0,1,5.129-3.01224v-5.3724h17.75V44.65313a38.859,38.859,0,0,0-13.03991-2.15171H66.44444A3.9459,3.9459,0,0,0,62.5,46.44878V80a37.22971,37.22971,0,0,0,3.16466,14.80263Z" style="fill:none"/>
    </clipPath>
  </defs>
  <g id="ff89d78c-8832-4326-ac52-0a37a191ec6c" data-name="ISO">
    <path 
      d="M117.10747,71.60975l15.661-8.2106a1.393,1.393,0,0,0,.56628-1.88339l-.0039-.0088a38.47206,38.47206,0,0,0-52.29612-13.895q-.61987.361-1.22711.74651A37.19166,37.19166,0,0,0,63.90489,89.91631a37.89348,37.89348,0,0,0,8.33249,15.0407,38.40645,38.40645,0,0,0,43.51431,9.43652,37.34524,37.34524,0,0,0,9.28377-5.794,1.3857,1.3857,0,0,0,.11794-1.94992l-.01852-.01957L113.45926,94.14684a1.39344,1.39344,0,0,0-1.85383-.16143,16.599,16.599,0,0,1-3.53612,2.23757,17.26606,17.26606,0,0,1-9.12587,1.33158c-8.05763-1.042-12.19512-7.694-12.49045-8.18028a17.37349,17.37349,0,0,1-2.348-10.45305,17.5888,17.5888,0,0,1,6.47768-11.82574,17.23688,17.23688,0,0,1,23.98672,2.9782c.27583.35319.5351.71813.78169,1.09286a1.3741,1.3741,0,0,0,1.75637.4432" 
      transform="translate(-59.54167 -41.51316)" 
      style="fill:#ff6064"
    />
      <g style="clip-path:url(#ff5fefc3-adb2-4abb-b227-248fe5798176)">
        <rect width="17.75" height="17.76316" style="fill:#ff7c8c"/>
        <rect x="17.75" width="17.75" height="17.76316" style="fill:#ff4971"/>
        <rect x="35.5" width="17.75" height="17.76316" style="fill:#ff4457"/>
        <rect y="17.76316" width="17.75" height="17.76316" style="fill:#ff4971"/>
        <rect y="35.52632" width="17.75" height="17.76316" style="fill:#ff4457"/>
        <rect x="17.75" y="17.76316" width="17.75" height="17.76316" style="fill:#ff4457"/>
      </g>
  </g>
</svg>