<svg id="Capa_2" data-name="Capa 2" xmlns="http://www.w3.org/2000/svg" viewBox="0 0 443.92 234.17">
  <defs>
    <style>
      .cls-1 {
        fill: #00fea1;
      }

      .cls-2 {
        fill: #00a079;
      }
    </style>
  </defs>
  <title>RDSeries-T3</title>
  <path id="RLayer" class="cls-1" d="M664.53,480.3c-1.79-11.1-9.16-47.71-42.06-77.06a144,144,0,0,0-39.93-25.5C567,371.55,545.3,369,540,369c-88.56,0-173.41-.11-262-.17L381.87,480h-154l.31.44c6,2.26,11.16,5.59,16.79,8.5a180.69,180.69,0,0,0,17.5,7.61c12.18,4.74,24.6,8.82,37.06,12.71,12.1,3.77,23.86,7.24,34.95,13.52.86.49,1.73.94,2.61,1.41,3.95.9,7.77,2.71,11.51,4.13,5.34,2,10.55,4.33,15.78,6.59a273.69,273.69,0,0,1,30.79,15.39,302.11,302.11,0,0,0,31.68,16.38c5.45,2.42,10.91,4.91,16.14,7.77l.22.12a5.2,5.2,0,0,1,6.31,1.78c1.79,2.5,7.26,4.21,9.86,5.84,3.74,2.36,7.78,4.18,11.47,6.62a99.34,99.34,0,0,0,11.11,6,16.43,16.43,0,0,1,4.28,2.86,19.8,19.8,0,0,1,1.64,1.77,20.81,20.81,0,0,1,5.7,3l1.24.56H585c7.28-.46,27.63,0,45-18,9.86-10.21,12.63-15.37,19.17-25.65h0A119.92,119.92,0,0,0,664.53,480.3Z" transform="translate(-222 -368.83)"/>
  <polygon id="T1" class="cls-2" points="160 111.17 273 234.17 0 111.17 160 111.17"/>
</svg>
