<svg id="Capa_2" data-name="Capa 2" xmlns="http://www.w3.org/2000/svg" viewBox="0 0 71.03 74.98"><defs><style>.cls-1{fill:#eb6066;}.cls-2{fill:#e8475b;}.cls-3{fill:#e94c72;}.cls-4{fill:#ee7b8b;}</style></defs><path class="cls-1" d="M70.86,19h0A38.45,38.45,0,0,0,37.48,0H4A3.92,3.92,0,0,0,.06,3.91V37h0A37.43,37.43,0,0,0,1.43,47.4a37.93,37.93,0,0,0,8.33,15,38.42,38.42,0,0,0,43.52,9.44,37.38,37.38,0,0,0,9.28-5.8,1.39,1.39,0,0,0,.12-2l0,0L51,51.63a1.4,1.4,0,0,0-1.86-.16,17.13,17.13,0,0,1-3.53,2.24A17.33,17.33,0,0,1,36.47,55c-8.06-1-12.2-7.7-12.49-8.18a17.32,17.32,0,0,1-2.35-10.45c0-.11,0-.22.05-.33a17.6,17.6,0,0,1,6.43-11.5,17.27,17.27,0,0,1,24,3c.27.35.53.72.78,1.09a1.36,1.36,0,0,0,1.75.44l15.66-8.21A1.39,1.39,0,0,0,70.86,19Z"/><g id="Capa_3" data-name="Capa 3"><path class="cls-2" d="M17.79,17.76V35.53h4a17.61,17.61,0,0,1,6.34-11,17.25,17.25,0,0,1,7.45-3.28V17.76Z"/><path class="cls-2" d="M53.29,17.76V3.33A43.6,43.6,0,0,0,35.54,0V17.76Z"/><path class="cls-2" d="M17.79,35.53H0A37.42,37.42,0,0,0,1.42,47.4a36.94,36.94,0,0,0,2.22,5.89H17.79Z"/><rect class="cls-3" x="0.04" y="17.76" width="17.75" height="17.76"/><rect class="cls-3" x="17.79" width="17.75" height="17.76"/><path class="cls-4" d="M4,0H17.79V17.76H0V3.91A3.91,3.91,0,0,1,4,0Z"/></g></svg>