<svg fill="#fff" id="b619fe7a-ff90-4eba-8fab-fc8da13c4d01" data-name="Capa 1" xmlns="http://www.w3.org/2000/svg" xmlns:xlink="http://www.w3.org/1999/xlink" viewBox="0 0 345 126.78261">
    <defs>
        <linearGradient id="f098983f-0e25-42ef-8a37-90969e9b2c72" x1="1.19966" y1="94.58815" x2="101.19961" y2="94.58815" gradientTransform="translate(0.23514 -0.02293)" gradientUnits="userSpaceOnUse">
            <stop offset="0" stop-color="#ed6f56" />
            <stop offset="1" stop-color="#ff6064" />
        </linearGradient>
        <clipPath id="f19b29d4-1e8d-4178-855a-243e0912bbca">
            <path d="M25.09943,65.36785h11.627V47.60469h7.12138a17.46641,17.46641,0,0,1,5.49959-9.37851,16.65459,16.65459,0,0,1,5.129-3.01224V29.84153h17.75V15.21835a38.85939,38.85939,0,0,0-13.03991-2.15172H25.87922A3.94591,3.94591,0,0,0,21.93477,17.014V50.56522a37.22971,37.22971,0,0,0,3.16466,14.80263Z" style="fill:none" />
        </clipPath>
        <clipPath id="a709f1c7-d8a7-4e50-b69c-38e7e1bf269b">
            <path d="M107.4542,59.23431a13.32324,13.32324,0,1,1,13.37961,13.48405A13.32259,13.32259,0,0,1,107.4542,59.23431m-13.90215,0a27.27746,27.27746,0,1,0,27.28176-27.48574A27.25288,27.25288,0,0,0,93.552,59.23431" style="fill:#ff6064" />
        </clipPath>
        <clipPath id="b9696296-277b-4b6c-8f78-1a1a4f0442c4">
            <path d="M198.98242,40.2153c-4.59926-6.47573-11.60267-8.46673-17.45618-8.46673-6.58021,0-11.17947,2.30458-14.31517,6.16712V32.27121H153.41829v53.304h13.79278V62.26561c0-11.493,3.44938-16.92349,11.39335-16.92349,7.62559,0,11.28413,5.11687,11.28413,16.92349V85.57523H203.686V62.26561c0-11.493,3.44953-16.92349,11.3935-16.92349,7.63061,0,11.289,5.11687,11.289,16.92349V85.57523h13.79263V58.29854c0-21.21907-12.64775-26.55-22.1598-26.55-7.93911,0-14.52433,3.03129-19.01894,8.46673" style="fill:none" />
        </clipPath>
        <clipPath id="bb055267-959c-42d8-b7c8-a796232b4837">
            <polygon points="254.413 15.343 254.413 32.271 244.384 32.271 244.384 44.815 254.413 44.815 254.413 85.575 268.315 85.575 268.315 44.815 279.495 44.815 279.495 32.271 268.315 32.271 268.315 15.343 254.413 15.343" style="fill:none" />
        </clipPath>
        <clipPath id="f8754a63-63bf-4125-8805-22d5c19b3f68">
            <polygon points="329.145 32.271 314.825 68.333 300.097 32.271 285.672 32.271 307.717 86.411 302.705 99.159 289.325 99.159 289.325 111.697 312.112 111.697 343.565 32.271 329.145 32.271" style="fill:none" />
        </clipPath>
    </defs>
    <g id="ac09f01a-134c-4431-8c16-92ddf77ea314" data-name="ISO">
        <path d="M12.08564,71.33466,3.02945,75.57422A2.76967,2.76967,0,0,0,1.62592,79.0925a61.16433,61.16433,0,0,0,73.67317,36.66026,59.91038,59.91038,0,0,0,11.99952-4.92518,61.40873,61.40873,0,0,0,7.34947-4.65668,63.36948,63.36948,0,0,0,5.92619-4.95293,2.77329,2.77329,0,0,0,.20741-3.79571l-6.15333-7.33184c-.02765-.03467-.05728-.06836-.08691-.10105a2.73018,2.73018,0,0,0-3.86387-.19619,46.69194,46.69194,0,0,1-39.736,11.394A48.16334,48.16334,0,0,1,30.921,92.4979,47.91286,47.91286,0,0,1,15.79049,72.75149c-.01679-.04161-.03655-.08322-.05531-.12484a2.72948,2.72948,0,0,0-3.64954-1.292" style="fill:url(#f098983f-0e25-42ef-8a37-90969e9b2c72)" />
        <path d="M76.54224,42.175l15.661-8.2106a1.393,1.393,0,0,0,.56628-1.88339l-.00389-.00881a38.47207,38.47207,0,0,0-52.29613-13.895q-.61987.361-1.22711.74651A37.19168,37.19168,0,0,0,23.33966,60.48153a37.89348,37.89348,0,0,0,8.33249,15.0407,38.40649,38.40649,0,0,0,43.51431,9.43652,37.3448,37.3448,0,0,0,9.28377-5.794,1.38568,1.38568,0,0,0,.11794-1.94991l-.01852-.01958L72.894,64.71206a1.39343,1.39343,0,0,0-1.85383-.16143,16.59877,16.59877,0,0,1-3.53611,2.23756,17.266,17.266,0,0,1-9.12588,1.33159c-8.05762-1.042-12.19512-7.694-12.49044-8.18028a17.37344,17.37344,0,0,1-2.348-10.45306A17.58886,17.58886,0,0,1,50.01746,37.6607a17.2369,17.2369,0,0,1,23.98672,2.9782c.27583.3532.5351.71814.7817,1.09286a1.37408,1.37408,0,0,0,1.75636.44321" style="fill:#ff6064" />
        <g style="clip-path:url(#f19b29d4-1e8d-4178-855a-243e0912bbca)">
            <rect x="18.97644" y="12.07838" width="17.75" height="17.76316" style="fill:#ff7c8c" />
            <rect x="36.72644" y="12.07838" width="17.75" height="17.76316" style="fill:#ff4971" />
            <rect x="54.47644" y="12.07838" width="17.75" height="17.76316" style="fill:#ff4457" />
            <rect x="18.97644" y="29.84153" width="17.75" height="17.76316" style="fill:#ff4971" />
            <rect x="18.97644" y="47.60469" width="17.75" height="17.76316" style="fill:#ff4457" />
            <rect x="36.72644" y="29.84153" width="17.75" height="17.76316" style="fill:#ff4457" />
        </g>
    </g>
    <path d="M107.4542,59.23431a13.32324,13.32324,0,1,1,13.37961,13.48405A13.32259,13.32259,0,0,1,107.4542,59.23431m-13.90215,0a27.27746,27.27746,0,1,0,27.28176-27.48574A27.25288,27.25288,0,0,0,93.552,59.23431" style="fill:#ff6064" />
    <g style="clip-path:url(#a709f1c7-d8a7-4e50-b69c-38e7e1bf269b)">
        <rect x="93.55205" y="31.74857" width="54.55318" height="54.86696" style="fill:#ff6064" />
    </g>
    <g style="clip-path:url(#b9696296-277b-4b6c-8f78-1a1a4f0442c4)">
        <rect x="153.41814" y="31.74857" width="86.74302" height="53.82666" style="fill:#ff6064" />
    </g>
    <g style="clip-path:url(#bb055267-959c-42d8-b7c8-a796232b4837)">
        <rect x="244.38346" y="15.34274" width="35.1112" height="70.23249" style="fill:#ff6064" />
    </g>
    <g style="clip-path:url(#f8754a63-63bf-4125-8805-22d5c19b3f68)">
        <rect x="285.67172" y="32.27121" width="57.89334" height="79.42594" style="fill:#ff6064" />
    </g>
</svg>