<?xml version="1.0" encoding="utf-8"?>
<!-- Generator: Adobe Illustrator 27.3.0, SVG Export Plug-In . SVG Version: 6.00 Build 0)  -->
<svg version="1.1" id="COMTY" xmlns="http://www.w3.org/2000/svg" xmlns:xlink="http://www.w3.org/1999/xlink" x="0px" y="0px"
	 viewBox="0 0 294.6 72" style="enable-background:new 0 0 294.6 72;" xml:space="preserve">
<style type="text/css">
	.st0{fill:#FF6064;}
	.st1{fill:#FF7C8C;}
	.st2{fill:#FF4971;}
	.st3{fill:#FF4457;}
</style>
<g id="COMTY_00000062880612720996709960000011441882448481893809_">
	<path id="Y" class="st0" d="M292.6,18h-11c-0.7,0-1.4,0.4-1.7,1l-6.8,11.8c-0.8,1.3-2.7,1.3-3.5,0L262.8,19c-0.4-0.6-1-1-1.7-1h-11
		c-1.5,0-2.5,1.7-1.7,3L263,46.3c0.4,0.6,0.4,1.4,0,2l-5.3,9.2c-0.4,0.6-1,1-1.7,1l-5.8,0c-1.1,0-2,0.9-2,2V70c0,1.1,0.9,2,2,2
		l14.8,0v-0.1h0.1L294.3,21C295.1,19.7,294.1,18,292.6,18z"/>
	<path id="T" class="st0" d="M241.7,18h-7.2c-1.1,0-2-0.9-2-2V2c0-1.1-0.9-2-2-2h-9.5c-1.1,0-2,0.9-2,2v14c0,1.1-0.9,2-2,2h-7.2
		c-1.1,0-2,0.9-2,2v9.5c0,1.1,0.9,2,2,2h7.2c1.1,0,2,0.9,2,2V70c0,1.1,0.9,2,2,2h9.5c1.1,0,2-0.9,2-2V33.5c0-1.1,0.9-2,2-2h7.2
		c1.1,0,2-0.9,2-2V20C243.7,18.9,242.8,18,241.7,18z"/>
	<path id="M" class="st0" d="M203.2,40.5c0-12.4-10.1-22.5-22.5-22.5c-5.5,0-10.6,2-14.5,5.3c-0.7,0.6-1.8,0.6-2.6,0
		c-3.9-3.3-9-5.3-14.5-5.3c-2.8,0-5.5,0.5-8,1.5c-0.5,0.2-1.1-0.2-1.1-0.7v0c0-0.4-0.3-0.8-0.8-0.8h-10.7c-1.1,0-2,0.9-2,2v50
		c0,1.1,0.9,2,2,2h9.5c1.1,0,2-0.9,2-2V40.5h0.1c0-5,4-9,9-9c5,0,9,4,9,9h0V70c0,1.1,0.9,2,2,2h9.5c1.1,0,2-0.9,2-2V40.5h0
		c0-5,4-9,9-9c5,0,9,4,9,9h0.1V70c0,1.1,0.9,2,2,2h9.5c1.1,0,2-0.9,2-2L203.2,40.5L203.2,40.5z"/>
	<path id="O" class="st0" d="M95.1,18c-14.9,0-27,12.1-27,27c0,14.9,12.1,27,27,27s27-12.1,27-27C122.1,30.1,110,18,95.1,18z
		 M95.1,58.5c-7.5,0-13.5-6-13.5-13.5c0-7.5,6-13.5,13.5-13.5c7.5,0,13.5,6,13.5,13.5C108.6,52.4,102.5,58.5,95.1,58.5z"/>
	<g id="C">
		<g id="C_00000063593590636530120860000002606857809347318659_">
			<path class="st0" d="M67.9,18.2L67.9,18.2C61.3,6.9,49.1-0.1,35.9,0H3.8C1.7,0,0,1.7,0,3.7c0,0,0,0,0,0v31.7l0,0
				c0,3.4,0.4,6.7,1.3,10c1.5,5.3,4.3,10.3,8,14.4c10.6,11.6,27.3,15.2,41.8,9.1c3.2-1.4,6.2-3.3,8.9-5.6c0.6-0.5,0.6-1.3,0.1-1.9
				c0,0,0,0,0,0l0,0L48.9,49.5c-0.5-0.5-1.2-0.6-1.8-0.2c-1,0.9-2.2,1.6-3.4,2.1c-2.8,1.2-5.8,1.6-8.8,1.2c-7.7-1-11.7-7.4-12-7.8
				c-1.8-3-2.6-6.5-2.3-10c0-0.1,0-0.2,0-0.3c0.6-4.3,2.8-8.3,6.2-11c7.2-5.5,17.4-4.2,23,2.9c0.3,0.3,0.5,0.7,0.7,1
				c0.4,0.5,1.1,0.7,1.7,0.4l15-7.9C68,19.7,68.3,18.9,67.9,18.2z"/>
		</g>
		<g id="CUADRADOS">
			<path class="st1" d="M18,18V0H3.6C1.6,0.1,0,1.7,0,3.7c0,0,0,0,0,0V18H18z"/>
			<rect x="18" y="0" class="st2" width="18" height="18"/>
			<rect x="0" y="18" class="st2" width="18" height="18"/>
			<path class="st3" d="M20.7,34.9c0-0.1,0-0.2,0-0.3c0.6-4.3,2.8-8.3,6.2-11c2.7-2.1,5.9-3.2,9.1-3.4V18H18v18h2.6
				C20.6,35.6,20.7,35.3,20.7,34.9z"/>
			<path class="st3" d="M54,4.6C48.6,1.6,42.4,0,36,0v18h18V4.6z"/>
			<path class="st3" d="M18,36H0v0.2c0,3.1,0.5,6.3,1.3,9.3c0.9,3,2.1,5.8,3.7,8.5h13V36z"/>
		</g>
	</g>
</g>
</svg>
