<svg viewBox="0 0 500 500" fill="none" xmlns="http://www.w3.org/2000/svg">
<rect width="100%" height="100%" rx="100" fill="#FF6064"/>
<g clip-path="url(#clip0_1_2)">
<path d="M396.924 172.736C396.924 172.736 360.481 193.83 344.164 203.246C339.979 205.648 334.666 204.423 331.844 200.468C310.496 170.9 270.667 155.598 229.239 171.936C210.101 179.469 194.536 194.206 186.448 213.134C159.974 275.095 204.646 334.75 263.284 334.75C283.551 334.75 302.125 327.64 316.703 315.728C320.512 312.668 325.966 312.809 329.446 316.246L376.093 363C379.949 366.814 379.761 373.123 375.717 376.748C330.057 417.381 262.25 433.672 192.702 405.187C138.061 382.822 94 314.504 94 255.368V99.3333C94 88.9279 102.417 80.5 112.809 80.5H263.284C322.345 80.5 374.259 110.822 404.542 156.728C407.505 161.295 406.094 167.416 396.924 172.736Z" fill="white"/>
<g opacity="0.5">
<path d="M178.595 80.5V165.25H94V99.3333C94 88.9279 102.417 80.5 112.809 80.5H178.595Z" fill="white"/>
<path d="M263.237 80.5H178.595V165.25H263.237V80.5Z" fill="white"/>
<path d="M347.879 103.288C323.286 89.0221 294.79 80.7354 264.366 80.5H263.237V165.25H338.474C343.647 165.25 347.879 161.013 347.879 155.833V103.288Z" fill="white"/>
<path d="M178.642 165.062H94V249.812H178.642V165.062Z" fill="white"/>
<path d="M178.595 249.812H94V255.367C94 281.593 102.652 309.56 117.041 334.562H169.19C174.363 334.562 178.595 330.324 178.595 325.145V249.812Z" fill="white"/>
<path d="M186.448 213.087C194.536 194.159 210.101 179.422 229.239 171.889C240.854 167.322 252.281 165.297 263.284 165.297V165.062H178.642V249.812H178.736C178.736 237.994 181.181 225.611 186.495 213.087H186.448Z" fill="white"/>
</g>
</g>
<defs>
<clipPath id="clip0_1_2">
<rect width="312" height="339" fill="white" transform="translate(94 80.5)"/>
</clipPath>
</defs>
</svg>
