<svg id="Capa_1" data-name="Capa 1" xmlns="http://www.w3.org/2000/svg" viewBox="0 0 185.74 232.39"><defs><style>.cls-1{fill:#2b2c2e;}.cls-2{fill:#feb500;}</style></defs><title>black_icon_new2019_black</title><path class="cls-1" d="M342.49,451.06c8.28,8.2,16.5,16.44,24.86,24.55,1.85,1.8.6,2.83-.41,4.08-15.56,19.36-35.85,29.16-60.57,27.74-35.91-2.07-63-26.9-67.73-62.51-5.41-40.92,21.42-78.11,59-85.47,25.83-5.05,55.39,7.3,69.51,29.39,1.07,1.68,2.31,2.94.15,5-8.15,7.85-16.08,15.91-24.21,24-.37-.34-.84-.57-1-.93C334.77,401.49,322.76,394,307,395c-13.74.89-25.63,11.25-30.41,26.51-7,22.32,3.85,43.55,25,48.88C317.7,474.46,332.28,467.59,342.49,451.06Z" transform="translate(-182.77 -275.17)"/><path class="cls-2" d="M192.52,352.88c-3.43-.21-6.6-2.45-8.51-6.25a10.13,10.13,0,0,1,1-11.27,152.39,152.39,0,0,1,33-32.36,159,159,0,0,1,61.51-27.38c8-1.68,13.53,1.45,15.06,8.26,1.48,6.53-2.47,11.86-10.49,13.61-33,7.21-59.84,24.16-80.78,50.57C200.76,351.35,197.56,352.84,192.52,352.88Z" transform="translate(-182.77 -275.17)"/><path class="cls-2" d="M228.48,378.16c-5.69.06-9-2.26-11.2-6.11a9.71,9.71,0,0,1,.8-11.28c17.71-23.09,41-37.62,69.2-44.2,5.59-1.3,11.28,2.58,12.63,8,1.59,6.42-1.53,12.16-8.11,13.87a110.09,110.09,0,0,0-24.27,9,100.52,100.52,0,0,0-31.21,26C234,376.28,231.31,378.28,228.48,378.16Z" transform="translate(-182.77 -275.17)"/></svg>